<?xml version="1.0" standalone="no"?><!DOCTYPE svg PUBLIC "-//W3C//DTD SVG 1.1//EN" "http://www.w3.org/Graphics/SVG/1.1/DTD/svg11.dtd"><svg t="1652182210148" class="icon" viewBox="0 0 1057 1024" version="1.1" xmlns="http://www.w3.org/2000/svg" p-id="4628" xmlns:xlink="http://www.w3.org/1999/xlink" width="24.7734375" height="24"><defs><style type="text/css">@font-face { font-family: feedback-iconfont; src: url("//at.alicdn.com/t/font_1031158_u69w8yhxdu.woff2?t=1630033759944") format("woff2"), url("//at.alicdn.com/t/font_1031158_u69w8yhxdu.woff?t=1630033759944") format("woff"), url("//at.alicdn.com/t/font_1031158_u69w8yhxdu.ttf?t=1630033759944") format("truetype"); }
</style></defs><path d="M286.17972 502.291838c0-18.572135 15.195383-33.767519 33.767518-33.767518h56.560594c18.572135 0 33.767519 15.195383 33.767518 33.767518l0.844188 214.423743c6.753504-1.688376 14.351195-4.22094 23.637263-5.909316 12.662819-3.376752 21.948887-14.351195 21.948887-27.858202L455.8615 417.028854c0-18.572135 15.195383-33.767519 33.767519-33.767518h56.560594c18.572135 0 33.767519 15.195383 33.767518 33.767518l0.844188 246.502885s14.351195-5.909316 27.858203-11.818631c10.130256-4.22094 17.727947-15.195383 16.883759-26.169827L624.699093 331.76587c0-18.572135 15.195383-33.767519 33.767519-33.767519h56.560593c18.572135 0 33.767519 15.195383 33.767519 33.767519l0.844188 242.281945c48.962902-35.455894 98.769992-78.509481 138.446826-130.849134 11.818631-15.195383 15.195383-35.455894 8.441879-53.183842C825.615829 179.812036 596.84089 70.067601 387.482275 143.511954 178.967848 216.112119 68.379225 445.731245 141.823578 654.245672c8.44188 23.637263 18.572135 46.430338 31.234955 68.379225 10.130256 16.883759 28.702391 27.014015 48.118713 25.325639 10.974444-0.844188 24.481451-2.532564 39.676835-4.22094 14.351195-1.688376 25.325639-13.507007 25.325639-27.858203V502.291838" fill="#ffffff" p-id="4629"></path><path d="M285.335532 845.87634c179.812036 130.004946 430.535862 89.483924 560.540808-89.483925 49.80709-68.379225 76.821105-151.109646 75.976916-236.372629 0-9.286068-0.844188-18.572135-0.844188-27.858203-146.044518 219.488871-416.184666 322.479802-635.673536 353.714757" fill="#ffffff" p-id="4630"></path></svg>